<?xml version="1.0" encoding="utf-8" standalone="no"?>
<!DOCTYPE svg PUBLIC "-//W3C//DTD SVG 1.1//EN"
  "http://www.w3.org/Graphics/SVG/1.1/DTD/svg11.dtd">
<svg xmlns:xlink="http://www.w3.org/1999/xlink" width="736.566641pt" height="284.306094pt" viewBox="0 0 736.566641 284.306094" xmlns="http://www.w3.org/2000/svg" version="1.1">
 <metadata>
  <rdf:RDF xmlns:dc="http://purl.org/dc/elements/1.1/" xmlns:cc="http://creativecommons.org/ns#" xmlns:rdf="http://www.w3.org/1999/02/22-rdf-syntax-ns#">
   <cc:Work>
    <dc:type rdf:resource="http://purl.org/dc/dcmitype/StillImage"/>
    <dc:date>2026-05-19T15:44:06.993833</dc:date>
    <dc:format>image/svg+xml</dc:format>
    <dc:creator>
     <cc:Agent>
      <dc:title>Matplotlib v3.10.9, https://matplotlib.org/</dc:title>
     </cc:Agent>
    </dc:creator>
   </cc:Work>
  </rdf:RDF>
 </metadata>
 <defs>
  <style type="text/css">*{stroke-linejoin: round; stroke-linecap: butt}</style>
 </defs>
 <g id="figure_1">
  <g id="patch_1">
   <path d="M 0 284.306094 
L 736.566641 284.306094 
L 736.566641 0 
L 0 0 
z
" style="fill: #ffffff"/>
  </g>
  <g id="axes_1">
   <g id="patch_2">
    <path d="M 59.766641 248.637188 
L 364.130277 248.637188 
L 364.130277 26.877187 
L 59.766641 26.877187 
z
" style="fill: #ffffff"/>
   </g>
   <g id="matplotlib.axis_1">
    <g id="xtick_1">
     <g id="line2d_1">
      <path d="M 73.601351 248.637188 
L 73.601351 26.877187 
" clip-path="url(#p2186fb0769)" style="fill: none; stroke: #cccccc; stroke-width: 1.5; stroke-linecap: round"/>
     </g>
     <g id="text_1">
      <!-- 0 -->
      <g style="fill: #262626" transform="translate(68.352289 273.674609) scale(0.165 -0.165)">
       <defs>
        <path id="DejaVuSans-30" d="M 2034 4250 
Q 1547 4250 1301 3770 
Q 1056 3291 1056 2328 
Q 1056 1369 1301 889 
Q 1547 409 2034 409 
Q 2525 409 2770 889 
Q 3016 1369 3016 2328 
Q 3016 3291 2770 3770 
Q 2525 4250 2034 4250 
z
M 2034 4750 
Q 2819 4750 3233 4129 
Q 3647 3509 3647 2328 
Q 3647 1150 3233 529 
Q 2819 -91 2034 -91 
Q 1250 -91 836 529 
Q 422 1150 422 2328 
Q 422 3509 836 4129 
Q 1250 4750 2034 4750 
z
" transform="scale(0.015625)"/>
       </defs>
       <use xlink:href="#DejaVuSans-30"/>
      </g>
     </g>
    </g>
    <g id="xtick_2">
     <g id="line2d_2">
      <path d="M 174.21743 248.637188 
L 174.21743 26.877187 
" clip-path="url(#p2186fb0769)" style="fill: none; stroke: #cccccc; stroke-width: 1.5; stroke-linecap: round"/>
     </g>
     <g id="text_2">
      <!-- 2 -->
      <g style="fill: #262626" transform="translate(168.968367 273.674609) scale(0.165 -0.165)">
       <defs>
        <path id="DejaVuSans-32" d="M 1228 531 
L 3431 531 
L 3431 0 
L 469 0 
L 469 531 
Q 828 903 1448 1529 
Q 2069 2156 2228 2338 
Q 2531 2678 2651 2914 
Q 2772 3150 2772 3378 
Q 2772 3750 2511 3984 
Q 2250 4219 1831 4219 
Q 1534 4219 1204 4116 
Q 875 4013 500 3803 
L 500 4441 
Q 881 4594 1212 4672 
Q 1544 4750 1819 4750 
Q 2544 4750 2975 4387 
Q 3406 4025 3406 3419 
Q 3406 3131 3298 2873 
Q 3191 2616 2906 2266 
Q 2828 2175 2409 1742 
Q 1991 1309 1228 531 
z
" transform="scale(0.015625)"/>
       </defs>
       <use xlink:href="#DejaVuSans-32"/>
      </g>
     </g>
    </g>
    <g id="xtick_3">
     <g id="line2d_3">
      <path d="M 274.833508 248.637188 
L 274.833508 26.877187 
" clip-path="url(#p2186fb0769)" style="fill: none; stroke: #cccccc; stroke-width: 1.5; stroke-linecap: round"/>
     </g>
     <g id="text_3">
      <!-- 4 -->
      <g style="fill: #262626" transform="translate(269.584445 273.674609) scale(0.165 -0.165)">
       <defs>
        <path id="DejaVuSans-34" d="M 2419 4116 
L 825 1625 
L 2419 1625 
L 2419 4116 
z
M 2253 4666 
L 3047 4666 
L 3047 1625 
L 3713 1625 
L 3713 1100 
L 3047 1100 
L 3047 0 
L 2419 0 
L 2419 1100 
L 313 1100 
L 313 1709 
L 2253 4666 
z
" transform="scale(0.015625)"/>
       </defs>
       <use xlink:href="#DejaVuSans-34"/>
      </g>
     </g>
    </g>
   </g>
   <g id="matplotlib.axis_2">
    <g id="ytick_1">
     <g id="line2d_4">
      <path d="M 59.766641 248.637187 
L 364.130277 248.637187 
" clip-path="url(#p2186fb0769)" style="fill: none; stroke: #cccccc; stroke-width: 1.5; stroke-linecap: round"/>
     </g>
     <g id="text_4">
      <!-- −1.0 -->
      <g style="fill: #262626" transform="translate(7.2 254.905898) scale(0.165 -0.165)">
       <defs>
        <path id="DejaVuSans-2212" d="M 678 2272 
L 4684 2272 
L 4684 1741 
L 678 1741 
L 678 2272 
z
" transform="scale(0.015625)"/>
        <path id="DejaVuSans-31" d="M 794 531 
L 1825 531 
L 1825 4091 
L 703 3866 
L 703 4441 
L 1819 4666 
L 2450 4666 
L 2450 531 
L 3481 531 
L 3481 0 
L 794 0 
L 794 531 
z
" transform="scale(0.015625)"/>
        <path id="DejaVuSans-2e" d="M 684 794 
L 1344 794 
L 1344 0 
L 684 0 
L 684 794 
z
" transform="scale(0.015625)"/>
       </defs>
       <use xlink:href="#DejaVuSans-2212"/>
       <use xlink:href="#DejaVuSans-31" transform="translate(83.789062 0)"/>
       <use xlink:href="#DejaVuSans-2e" transform="translate(147.412109 0)"/>
       <use xlink:href="#DejaVuSans-30" transform="translate(179.199219 0)"/>
      </g>
     </g>
    </g>
    <g id="ytick_2">
     <g id="line2d_5">
      <path d="M 59.766641 193.197187 
L 364.130277 193.197187 
" clip-path="url(#p2186fb0769)" style="fill: none; stroke: #cccccc; stroke-width: 1.5; stroke-linecap: round"/>
     </g>
     <g id="text_5">
      <!-- −0.5 -->
      <g style="fill: #262626" transform="translate(7.2 199.465898) scale(0.165 -0.165)">
       <defs>
        <path id="DejaVuSans-35" d="M 691 4666 
L 3169 4666 
L 3169 4134 
L 1269 4134 
L 1269 2991 
Q 1406 3038 1543 3061 
Q 1681 3084 1819 3084 
Q 2600 3084 3056 2656 
Q 3513 2228 3513 1497 
Q 3513 744 3044 326 
Q 2575 -91 1722 -91 
Q 1428 -91 1123 -41 
Q 819 9 494 109 
L 494 744 
Q 775 591 1075 516 
Q 1375 441 1709 441 
Q 2250 441 2565 725 
Q 2881 1009 2881 1497 
Q 2881 1984 2565 2268 
Q 2250 2553 1709 2553 
Q 1456 2553 1204 2497 
Q 953 2441 691 2322 
L 691 4666 
z
" transform="scale(0.015625)"/>
       </defs>
       <use xlink:href="#DejaVuSans-2212"/>
       <use xlink:href="#DejaVuSans-30" transform="translate(83.789062 0)"/>
       <use xlink:href="#DejaVuSans-2e" transform="translate(147.412109 0)"/>
       <use xlink:href="#DejaVuSans-35" transform="translate(179.199219 0)"/>
      </g>
     </g>
    </g>
    <g id="ytick_3">
     <g id="line2d_6">
      <path d="M 59.766641 137.757187 
L 364.130277 137.757187 
" clip-path="url(#p2186fb0769)" style="fill: none; stroke: #cccccc; stroke-width: 1.5; stroke-linecap: round"/>
     </g>
     <g id="text_6">
      <!-- 0.0 -->
      <g style="fill: #262626" transform="translate(21.026484 144.025898) scale(0.165 -0.165)">
       <use xlink:href="#DejaVuSans-30"/>
       <use xlink:href="#DejaVuSans-2e" transform="translate(63.623047 0)"/>
       <use xlink:href="#DejaVuSans-30" transform="translate(95.410156 0)"/>
      </g>
     </g>
    </g>
    <g id="ytick_4">
     <g id="line2d_7">
      <path d="M 59.766641 82.317187 
L 364.130277 82.317187 
" clip-path="url(#p2186fb0769)" style="fill: none; stroke: #cccccc; stroke-width: 1.5; stroke-linecap: round"/>
     </g>
     <g id="text_7">
      <!-- 0.5 -->
      <g style="fill: #262626" transform="translate(21.026484 88.585898) scale(0.165 -0.165)">
       <use xlink:href="#DejaVuSans-30"/>
       <use xlink:href="#DejaVuSans-2e" transform="translate(63.623047 0)"/>
       <use xlink:href="#DejaVuSans-35" transform="translate(95.410156 0)"/>
      </g>
     </g>
    </g>
    <g id="ytick_5">
     <g id="line2d_8">
      <path d="M 59.766641 26.877187 
L 364.130277 26.877187 
" clip-path="url(#p2186fb0769)" style="fill: none; stroke: #cccccc; stroke-width: 1.5; stroke-linecap: round"/>
     </g>
     <g id="text_8">
      <!-- 1.0 -->
      <g style="fill: #262626" transform="translate(21.026484 33.145898) scale(0.165 -0.165)">
       <use xlink:href="#DejaVuSans-31"/>
       <use xlink:href="#DejaVuSans-2e" transform="translate(63.623047 0)"/>
       <use xlink:href="#DejaVuSans-30" transform="translate(95.410156 0)"/>
      </g>
     </g>
    </g>
   </g>
   <g id="FillBetweenPolyCollection_1">
    <defs>
     <path id="mb5e8fd4a2d" d="M 98.755371 -206.822853 
L 98.755371 -86.274959 
L 174.21743 -71.758685 
L 224.525469 -70.491926 
L 274.833508 -69.867448 
L 350.295566 -66.887119 
L 350.295566 -226.210693 
L 350.295566 -226.210693 
L 274.833508 -223.230365 
L 224.525469 -222.605886 
L 174.21743 -221.339128 
L 98.755371 -206.822853 
z
" style="stroke: #ffffff; stroke-opacity: 0.25; stroke-width: 1.5"/>
    </defs>
    <g clip-path="url(#p2186fb0769)">
     <use xlink:href="#mb5e8fd4a2d" x="0" y="284.306094" style="fill: #4c72b0; fill-opacity: 0.25; stroke: #ffffff; stroke-opacity: 0.25; stroke-width: 1.5"/>
    </g>
   </g>
   <g id="LineCollection_1">
    <path d="M 73.601351 137.757187 
L 73.601351 26.877187 
" clip-path="url(#p2186fb0769)" style="fill: none; stroke: #4c72b0; stroke-width: 2.25"/>
    <path d="M 123.90939 137.757187 
L 123.90939 80.159341 
" clip-path="url(#p2186fb0769)" style="fill: none; stroke: #4c72b0; stroke-width: 2.25"/>
    <path d="M 174.21743 137.757187 
L 174.21743 119.775759 
" clip-path="url(#p2186fb0769)" style="fill: none; stroke: #4c72b0; stroke-width: 2.25"/>
    <path d="M 224.525469 137.757187 
L 224.525469 150.461216 
" clip-path="url(#p2186fb0769)" style="fill: none; stroke: #4c72b0; stroke-width: 2.25"/>
    <path d="M 274.833508 137.757187 
L 274.833508 165.836096 
" clip-path="url(#p2186fb0769)" style="fill: none; stroke: #4c72b0; stroke-width: 2.25"/>
    <path d="M 325.141547 137.757187 
L 325.141547 172.931774 
" clip-path="url(#p2186fb0769)" style="fill: none; stroke: #4c72b0; stroke-width: 2.25"/>
   </g>
   <g id="line2d_9">
    <path d="M 59.766641 137.757187 
L 364.130277 137.757187 
" clip-path="url(#p2186fb0769)" style="fill: none; stroke: #4c72b0; stroke-width: 2.25; stroke-linecap: round"/>
   </g>
   <g id="line2d_10">
    <defs>
     <path id="mf9b9f9b820" d="M 0 2.5 
C 0.663008 2.5 1.29895 2.236584 1.767767 1.767767 
C 2.236584 1.29895 2.5 0.663008 2.5 0 
C 2.5 -0.663008 2.236584 -1.29895 1.767767 -1.767767 
C 1.29895 -2.236584 0.663008 -2.5 0 -2.5 
C -0.663008 -2.5 -1.29895 -2.236584 -1.767767 -1.767767 
C -2.236584 -1.29895 -2.5 -0.663008 -2.5 0 
C -2.5 0.663008 -2.236584 1.29895 -1.767767 1.767767 
C -1.29895 2.236584 -0.663008 2.5 0 2.5 
z
" style="stroke: #4c72b0"/>
    </defs>
    <g clip-path="url(#p2186fb0769)">
     <use xlink:href="#mf9b9f9b820" x="73.601351" y="26.877187" style="fill: #4c72b0; stroke: #4c72b0"/>
     <use xlink:href="#mf9b9f9b820" x="123.90939" y="80.159341" style="fill: #4c72b0; stroke: #4c72b0"/>
     <use xlink:href="#mf9b9f9b820" x="174.21743" y="119.775759" style="fill: #4c72b0; stroke: #4c72b0"/>
     <use xlink:href="#mf9b9f9b820" x="224.525469" y="150.461216" style="fill: #4c72b0; stroke: #4c72b0"/>
     <use xlink:href="#mf9b9f9b820" x="274.833508" y="165.836096" style="fill: #4c72b0; stroke: #4c72b0"/>
     <use xlink:href="#mf9b9f9b820" x="325.141547" y="172.931774" style="fill: #4c72b0; stroke: #4c72b0"/>
    </g>
   </g>
   <g id="patch_3">
    <path d="M 59.766641 248.637187 
L 59.766641 26.877187 
" style="fill: none; stroke: #cccccc; stroke-width: 1.875; stroke-linejoin: miter; stroke-linecap: square"/>
   </g>
   <g id="patch_4">
    <path d="M 364.130277 248.637187 
L 364.130277 26.877187 
" style="fill: none; stroke: #cccccc; stroke-width: 1.875; stroke-linejoin: miter; stroke-linecap: square"/>
   </g>
   <g id="patch_5">
    <path d="M 59.766641 248.637188 
L 364.130277 248.637188 
" style="fill: none; stroke: #cccccc; stroke-width: 1.875; stroke-linejoin: miter; stroke-linecap: square"/>
   </g>
   <g id="patch_6">
    <path d="M 59.766641 26.877187 
L 364.130277 26.877187 
" style="fill: none; stroke: #cccccc; stroke-width: 1.875; stroke-linejoin: miter; stroke-linecap: square"/>
   </g>
   <g id="text_9">
    <!-- BIM-04 - ACF OD -->
    <g style="fill: #262626" transform="translate(137.351115 20.877187) scale(0.18 -0.18)">
     <defs>
      <path id="DejaVuSans-42" d="M 1259 2228 
L 1259 519 
L 2272 519 
Q 2781 519 3026 730 
Q 3272 941 3272 1375 
Q 3272 1813 3026 2020 
Q 2781 2228 2272 2228 
L 1259 2228 
z
M 1259 4147 
L 1259 2741 
L 2194 2741 
Q 2656 2741 2882 2914 
Q 3109 3088 3109 3444 
Q 3109 3797 2882 3972 
Q 2656 4147 2194 4147 
L 1259 4147 
z
M 628 4666 
L 2241 4666 
Q 2963 4666 3353 4366 
Q 3744 4066 3744 3513 
Q 3744 3084 3544 2831 
Q 3344 2578 2956 2516 
Q 3422 2416 3680 2098 
Q 3938 1781 3938 1306 
Q 3938 681 3513 340 
Q 3088 0 2303 0 
L 628 0 
L 628 4666 
z
" transform="scale(0.015625)"/>
      <path id="DejaVuSans-49" d="M 628 4666 
L 1259 4666 
L 1259 0 
L 628 0 
L 628 4666 
z
" transform="scale(0.015625)"/>
      <path id="DejaVuSans-4d" d="M 628 4666 
L 1569 4666 
L 2759 1491 
L 3956 4666 
L 4897 4666 
L 4897 0 
L 4281 0 
L 4281 4097 
L 3078 897 
L 2444 897 
L 1241 4097 
L 1241 0 
L 628 0 
L 628 4666 
z
" transform="scale(0.015625)"/>
      <path id="DejaVuSans-2d" d="M 313 2009 
L 1997 2009 
L 1997 1497 
L 313 1497 
L 313 2009 
z
" transform="scale(0.015625)"/>
      <path id="DejaVuSans-20" transform="scale(0.015625)"/>
      <path id="DejaVuSans-41" d="M 2188 4044 
L 1331 1722 
L 3047 1722 
L 2188 4044 
z
M 1831 4666 
L 2547 4666 
L 4325 0 
L 3669 0 
L 3244 1197 
L 1141 1197 
L 716 0 
L 50 0 
L 1831 4666 
z
" transform="scale(0.015625)"/>
      <path id="DejaVuSans-43" d="M 4122 4306 
L 4122 3641 
Q 3803 3938 3442 4084 
Q 3081 4231 2675 4231 
Q 1875 4231 1450 3742 
Q 1025 3253 1025 2328 
Q 1025 1406 1450 917 
Q 1875 428 2675 428 
Q 3081 428 3442 575 
Q 3803 722 4122 1019 
L 4122 359 
Q 3791 134 3420 21 
Q 3050 -91 2638 -91 
Q 1578 -91 968 557 
Q 359 1206 359 2328 
Q 359 3453 968 4101 
Q 1578 4750 2638 4750 
Q 3056 4750 3426 4639 
Q 3797 4528 4122 4306 
z
" transform="scale(0.015625)"/>
      <path id="DejaVuSans-46" d="M 628 4666 
L 3309 4666 
L 3309 4134 
L 1259 4134 
L 1259 2759 
L 3109 2759 
L 3109 2228 
L 1259 2228 
L 1259 0 
L 628 0 
L 628 4666 
z
" transform="scale(0.015625)"/>
      <path id="DejaVuSans-4f" d="M 2522 4238 
Q 1834 4238 1429 3725 
Q 1025 3213 1025 2328 
Q 1025 1447 1429 934 
Q 1834 422 2522 422 
Q 3209 422 3611 934 
Q 4013 1447 4013 2328 
Q 4013 3213 3611 3725 
Q 3209 4238 2522 4238 
z
M 2522 4750 
Q 3503 4750 4090 4092 
Q 4678 3434 4678 2328 
Q 4678 1225 4090 567 
Q 3503 -91 2522 -91 
Q 1538 -91 948 565 
Q 359 1222 359 2328 
Q 359 3434 948 4092 
Q 1538 4750 2522 4750 
z
" transform="scale(0.015625)"/>
      <path id="DejaVuSans-44" d="M 1259 4147 
L 1259 519 
L 2022 519 
Q 2988 519 3436 956 
Q 3884 1394 3884 2338 
Q 3884 3275 3436 3711 
Q 2988 4147 2022 4147 
L 1259 4147 
z
M 628 4666 
L 1925 4666 
Q 3281 4666 3915 4102 
Q 4550 3538 4550 2338 
Q 4550 1131 3912 565 
Q 3275 0 1925 0 
L 628 0 
L 628 4666 
z
" transform="scale(0.015625)"/>
     </defs>
     <use xlink:href="#DejaVuSans-42"/>
     <use xlink:href="#DejaVuSans-49" transform="translate(68.603516 0)"/>
     <use xlink:href="#DejaVuSans-4d" transform="translate(98.095703 0)"/>
     <use xlink:href="#DejaVuSans-2d" transform="translate(184.375 0)"/>
     <use xlink:href="#DejaVuSans-30" transform="translate(220.458984 0)"/>
     <use xlink:href="#DejaVuSans-34" transform="translate(284.082031 0)"/>
     <use xlink:href="#DejaVuSans-20" transform="translate(347.705078 0)"/>
     <use xlink:href="#DejaVuSans-2d" transform="translate(379.492188 0)"/>
     <use xlink:href="#DejaVuSans-20" transform="translate(415.576172 0)"/>
     <use xlink:href="#DejaVuSans-41" transform="translate(447.363281 0)"/>
     <use xlink:href="#DejaVuSans-43" transform="translate(514.021484 0)"/>
     <use xlink:href="#DejaVuSans-46" transform="translate(583.845703 0)"/>
     <use xlink:href="#DejaVuSans-20" transform="translate(641.365234 0)"/>
     <use xlink:href="#DejaVuSans-4f" transform="translate(673.152344 0)"/>
     <use xlink:href="#DejaVuSans-44" transform="translate(751.863281 0)"/>
    </g>
   </g>
  </g>
  <g id="axes_2">
   <g id="patch_7">
    <path d="M 425.003004 248.637188 
L 729.366641 248.637188 
L 729.366641 26.877187 
L 425.003004 26.877187 
z
" style="fill: #ffffff"/>
   </g>
   <g id="matplotlib.axis_3">
    <g id="xtick_4">
     <g id="line2d_11">
      <path d="M 438.837715 248.637188 
L 438.837715 26.877187 
" clip-path="url(#p15ef62a066)" style="fill: none; stroke: #cccccc; stroke-width: 1.5; stroke-linecap: round"/>
     </g>
     <g id="text_10">
      <!-- 0 -->
      <g style="fill: #262626" transform="translate(433.588653 273.674609) scale(0.165 -0.165)">
       <use xlink:href="#DejaVuSans-30"/>
      </g>
     </g>
    </g>
    <g id="xtick_5">
     <g id="line2d_12">
      <path d="M 539.453793 248.637188 
L 539.453793 26.877187 
" clip-path="url(#p15ef62a066)" style="fill: none; stroke: #cccccc; stroke-width: 1.5; stroke-linecap: round"/>
     </g>
     <g id="text_11">
      <!-- 2 -->
      <g style="fill: #262626" transform="translate(534.204731 273.674609) scale(0.165 -0.165)">
       <use xlink:href="#DejaVuSans-32"/>
      </g>
     </g>
    </g>
    <g id="xtick_6">
     <g id="line2d_13">
      <path d="M 640.069871 248.637188 
L 640.069871 26.877187 
" clip-path="url(#p15ef62a066)" style="fill: none; stroke: #cccccc; stroke-width: 1.5; stroke-linecap: round"/>
     </g>
     <g id="text_12">
      <!-- 4 -->
      <g style="fill: #262626" transform="translate(634.820809 273.674609) scale(0.165 -0.165)">
       <use xlink:href="#DejaVuSans-34"/>
      </g>
     </g>
    </g>
   </g>
   <g id="matplotlib.axis_4">
    <g id="ytick_6">
     <g id="line2d_14">
      <path d="M 425.003004 248.637187 
L 729.366641 248.637187 
" clip-path="url(#p15ef62a066)" style="fill: none; stroke: #cccccc; stroke-width: 1.5; stroke-linecap: round"/>
     </g>
     <g id="text_13">
      <!-- −1.0 -->
      <g style="fill: #262626" transform="translate(372.436364 254.905898) scale(0.165 -0.165)">
       <use xlink:href="#DejaVuSans-2212"/>
       <use xlink:href="#DejaVuSans-31" transform="translate(83.789062 0)"/>
       <use xlink:href="#DejaVuSans-2e" transform="translate(147.412109 0)"/>
       <use xlink:href="#DejaVuSans-30" transform="translate(179.199219 0)"/>
      </g>
     </g>
    </g>
    <g id="ytick_7">
     <g id="line2d_15">
      <path d="M 425.003004 193.197187 
L 729.366641 193.197187 
" clip-path="url(#p15ef62a066)" style="fill: none; stroke: #cccccc; stroke-width: 1.5; stroke-linecap: round"/>
     </g>
     <g id="text_14">
      <!-- −0.5 -->
      <g style="fill: #262626" transform="translate(372.436364 199.465898) scale(0.165 -0.165)">
       <use xlink:href="#DejaVuSans-2212"/>
       <use xlink:href="#DejaVuSans-30" transform="translate(83.789062 0)"/>
       <use xlink:href="#DejaVuSans-2e" transform="translate(147.412109 0)"/>
       <use xlink:href="#DejaVuSans-35" transform="translate(179.199219 0)"/>
      </g>
     </g>
    </g>
    <g id="ytick_8">
     <g id="line2d_16">
      <path d="M 425.003004 137.757187 
L 729.366641 137.757187 
" clip-path="url(#p15ef62a066)" style="fill: none; stroke: #cccccc; stroke-width: 1.5; stroke-linecap: round"/>
     </g>
     <g id="text_15">
      <!-- 0.0 -->
      <g style="fill: #262626" transform="translate(386.262848 144.025898) scale(0.165 -0.165)">
       <use xlink:href="#DejaVuSans-30"/>
       <use xlink:href="#DejaVuSans-2e" transform="translate(63.623047 0)"/>
       <use xlink:href="#DejaVuSans-30" transform="translate(95.410156 0)"/>
      </g>
     </g>
    </g>
    <g id="ytick_9">
     <g id="line2d_17">
      <path d="M 425.003004 82.317187 
L 729.366641 82.317187 
" clip-path="url(#p15ef62a066)" style="fill: none; stroke: #cccccc; stroke-width: 1.5; stroke-linecap: round"/>
     </g>
     <g id="text_16">
      <!-- 0.5 -->
      <g style="fill: #262626" transform="translate(386.262848 88.585898) scale(0.165 -0.165)">
       <use xlink:href="#DejaVuSans-30"/>
       <use xlink:href="#DejaVuSans-2e" transform="translate(63.623047 0)"/>
       <use xlink:href="#DejaVuSans-35" transform="translate(95.410156 0)"/>
      </g>
     </g>
    </g>
    <g id="ytick_10">
     <g id="line2d_18">
      <path d="M 425.003004 26.877187 
L 729.366641 26.877187 
" clip-path="url(#p15ef62a066)" style="fill: none; stroke: #cccccc; stroke-width: 1.5; stroke-linecap: round"/>
     </g>
     <g id="text_17">
      <!-- 1.0 -->
      <g style="fill: #262626" transform="translate(386.262848 33.145898) scale(0.165 -0.165)">
       <use xlink:href="#DejaVuSans-31"/>
       <use xlink:href="#DejaVuSans-2e" transform="translate(63.623047 0)"/>
       <use xlink:href="#DejaVuSans-30" transform="translate(95.410156 0)"/>
      </g>
     </g>
    </g>
   </g>
   <g id="FillBetweenPolyCollection_2">
    <defs>
     <path id="m942e154f7e" d="M 463.991735 -206.822853 
L 463.991735 -86.274959 
L 539.453793 -86.274959 
L 589.761832 -86.274959 
L 640.069871 -86.274959 
L 715.53193 -86.274959 
L 715.53193 -206.822853 
L 715.53193 -206.822853 
L 640.069871 -206.822853 
L 589.761832 -206.822853 
L 539.453793 -206.822853 
L 463.991735 -206.822853 
z
" style="stroke: #ffffff; stroke-opacity: 0.25; stroke-width: 1.5"/>
    </defs>
    <g clip-path="url(#p15ef62a066)">
     <use xlink:href="#m942e154f7e" x="0" y="284.306094" style="fill: #4c72b0; fill-opacity: 0.25; stroke: #ffffff; stroke-opacity: 0.25; stroke-width: 1.5"/>
    </g>
   </g>
   <g id="LineCollection_2">
    <path d="M 438.837715 137.757187 
L 438.837715 26.877187 
" clip-path="url(#p15ef62a066)" style="fill: none; stroke: #4c72b0; stroke-width: 2.25"/>
    <path d="M 489.145754 137.757187 
L 489.145754 80.159341 
" clip-path="url(#p15ef62a066)" style="fill: none; stroke: #4c72b0; stroke-width: 2.25"/>
    <path d="M 539.453793 137.757187 
L 539.453793 154.10759 
" clip-path="url(#p15ef62a066)" style="fill: none; stroke: #4c72b0; stroke-width: 2.25"/>
    <path d="M 589.761832 137.757187 
L 589.761832 158.657384 
" clip-path="url(#p15ef62a066)" style="fill: none; stroke: #4c72b0; stroke-width: 2.25"/>
    <path d="M 640.069871 137.757187 
L 640.069871 151.360725 
" clip-path="url(#p15ef62a066)" style="fill: none; stroke: #4c72b0; stroke-width: 2.25"/>
    <path d="M 690.37791 137.757187 
L 690.37791 154.213389 
" clip-path="url(#p15ef62a066)" style="fill: none; stroke: #4c72b0; stroke-width: 2.25"/>
   </g>
   <g id="line2d_19">
    <path d="M 425.003004 137.757187 
L 729.366641 137.757187 
" clip-path="url(#p15ef62a066)" style="fill: none; stroke: #4c72b0; stroke-width: 2.25; stroke-linecap: round"/>
   </g>
   <g id="line2d_20">
    <g clip-path="url(#p15ef62a066)">
     <use xlink:href="#mf9b9f9b820" x="438.837715" y="26.877187" style="fill: #4c72b0; stroke: #4c72b0"/>
     <use xlink:href="#mf9b9f9b820" x="489.145754" y="80.159341" style="fill: #4c72b0; stroke: #4c72b0"/>
     <use xlink:href="#mf9b9f9b820" x="539.453793" y="154.10759" style="fill: #4c72b0; stroke: #4c72b0"/>
     <use xlink:href="#mf9b9f9b820" x="589.761832" y="158.657384" style="fill: #4c72b0; stroke: #4c72b0"/>
     <use xlink:href="#mf9b9f9b820" x="640.069871" y="151.360725" style="fill: #4c72b0; stroke: #4c72b0"/>
     <use xlink:href="#mf9b9f9b820" x="690.37791" y="154.213389" style="fill: #4c72b0; stroke: #4c72b0"/>
    </g>
   </g>
   <g id="patch_8">
    <path d="M 425.003004 248.637187 
L 425.003004 26.877187 
" style="fill: none; stroke: #cccccc; stroke-width: 1.875; stroke-linejoin: miter; stroke-linecap: square"/>
   </g>
   <g id="patch_9">
    <path d="M 729.366641 248.637187 
L 729.366641 26.877187 
" style="fill: none; stroke: #cccccc; stroke-width: 1.875; stroke-linejoin: miter; stroke-linecap: square"/>
   </g>
   <g id="patch_10">
    <path d="M 425.003004 248.637188 
L 729.366641 248.637188 
" style="fill: none; stroke: #cccccc; stroke-width: 1.875; stroke-linejoin: miter; stroke-linecap: square"/>
   </g>
   <g id="patch_11">
    <path d="M 425.003004 26.877187 
L 729.366641 26.877187 
" style="fill: none; stroke: #cccccc; stroke-width: 1.875; stroke-linejoin: miter; stroke-linecap: square"/>
   </g>
   <g id="text_18">
    <!-- BIM-04 - PACF OD -->
    <g style="fill: #262626" transform="translate(497.73451 20.877187) scale(0.18 -0.18)">
     <defs>
      <path id="DejaVuSans-50" d="M 1259 4147 
L 1259 2394 
L 2053 2394 
Q 2494 2394 2734 2622 
Q 2975 2850 2975 3272 
Q 2975 3691 2734 3919 
Q 2494 4147 2053 4147 
L 1259 4147 
z
M 628 4666 
L 2053 4666 
Q 2838 4666 3239 4311 
Q 3641 3956 3641 3272 
Q 3641 2581 3239 2228 
Q 2838 1875 2053 1875 
L 1259 1875 
L 1259 0 
L 628 0 
L 628 4666 
z
" transform="scale(0.015625)"/>
     </defs>
     <use xlink:href="#DejaVuSans-42"/>
     <use xlink:href="#DejaVuSans-49" transform="translate(68.603516 0)"/>
     <use xlink:href="#DejaVuSans-4d" transform="translate(98.095703 0)"/>
     <use xlink:href="#DejaVuSans-2d" transform="translate(184.375 0)"/>
     <use xlink:href="#DejaVuSans-30" transform="translate(220.458984 0)"/>
     <use xlink:href="#DejaVuSans-34" transform="translate(284.082031 0)"/>
     <use xlink:href="#DejaVuSans-20" transform="translate(347.705078 0)"/>
     <use xlink:href="#DejaVuSans-2d" transform="translate(379.492188 0)"/>
     <use xlink:href="#DejaVuSans-20" transform="translate(415.576172 0)"/>
     <use xlink:href="#DejaVuSans-50" transform="translate(447.363281 0)"/>
     <use xlink:href="#DejaVuSans-41" transform="translate(501.291016 0)"/>
     <use xlink:href="#DejaVuSans-43" transform="translate(567.949219 0)"/>
     <use xlink:href="#DejaVuSans-46" transform="translate(637.773438 0)"/>
     <use xlink:href="#DejaVuSans-20" transform="translate(695.292969 0)"/>
     <use xlink:href="#DejaVuSans-4f" transform="translate(727.080078 0)"/>
     <use xlink:href="#DejaVuSans-44" transform="translate(805.791016 0)"/>
    </g>
   </g>
  </g>
 </g>
 <defs>
  <clipPath id="p2186fb0769">
   <rect x="59.766641" y="26.877187" width="304.363636" height="221.76"/>
  </clipPath>
  <clipPath id="p15ef62a066">
   <rect x="425.003004" y="26.877187" width="304.363636" height="221.76"/>
  </clipPath>
 </defs>
</svg>
